<mxfile host="app.diagrams.net" modified="2024-05-14T01:29:25.271Z" agent="Mozilla/5.0 (Windows NT 10.0; Win64; x64) AppleWebKit/537.36 (KHTML, like Gecko) Chrome/124.0.0.0 Safari/537.36" version="24.4.0" etag="pSp2CiVcAW9wkw3p11St" type="github">
  <diagram name="Halaman-1" id="LGB-Xz7n6PSq5lVLwMlR">
    <mxGraphModel>
      <root>
        <mxCell id="0" />
        <mxCell id="1" parent="0" />
      </root>
    </mxGraphModel>
  </diagram>
</mxfile>
